<mxfile host="Electron" agent="Mozilla/5.0 (Windows NT 10.0; Win64; x64) AppleWebKit/537.36 (KHTML, like Gecko) draw.io/28.0.6 Chrome/138.0.7204.100 Electron/37.2.3 Safari/537.36" version="28.0.6">
  <diagram name="第 1 页" id="MqOkthow9WZnEre9_YZL">
    <mxGraphModel dx="866" dy="724" grid="0" gridSize="10" guides="1" tooltips="1" connect="1" arrows="1" fold="1" page="0" pageScale="1" pageWidth="827" pageHeight="1169" math="0" shadow="1">
      <root>
        <mxCell id="0" />
        <mxCell id="1" parent="0" />
        <mxCell id="vZvixKyqz1IigzheAkqA-4" value="" style="edgeStyle=orthogonalEdgeStyle;rounded=1;orthogonalLoop=1;jettySize=auto;html=1;fontSize=14;fontStyle=0;fontFamily=Times New Roman;labelBorderColor=none;textShadow=0;strokeWidth=3;strokeColor=light-dark(#f9f115, #ededed);endArrow=block;endFill=1;shadow=1;" edge="1" parent="1" source="vZvixKyqz1IigzheAkqA-2" target="vZvixKyqz1IigzheAkqA-3">
          <mxGeometry relative="1" as="geometry" />
        </mxCell>
        <mxCell id="vZvixKyqz1IigzheAkqA-2" value="实践" style="rounded=1;whiteSpace=wrap;html=1;fontSize=18;fontStyle=0;fontFamily=Times New Roman;labelBorderColor=none;textShadow=0;gradientColor=none;glass=0;shadow=0;strokeWidth=3;strokeColor=light-dark(#0276f2, #ededed);verticalAlign=middle;horizontal=1;" vertex="1" parent="1">
          <mxGeometry x="270" y="210" width="120" height="40" as="geometry" />
        </mxCell>
        <mxCell id="vZvixKyqz1IigzheAkqA-6" value="" style="edgeStyle=orthogonalEdgeStyle;rounded=1;orthogonalLoop=1;jettySize=auto;html=1;fontSize=14;fontStyle=0;fontFamily=Times New Roman;labelBorderColor=none;textShadow=0;strokeWidth=3;strokeColor=light-dark(#f9f115, #ededed);endArrow=block;endFill=1;shadow=1;" edge="1" parent="1" source="vZvixKyqz1IigzheAkqA-3" target="vZvixKyqz1IigzheAkqA-5">
          <mxGeometry relative="1" as="geometry" />
        </mxCell>
        <mxCell id="vZvixKyqz1IigzheAkqA-3" value="感性认识" style="whiteSpace=wrap;html=1;rounded=1;fontSize=18;fontStyle=0;fontFamily=Times New Roman;labelBorderColor=none;textShadow=0;shadow=0;strokeWidth=4;strokeColor=light-dark(#0276f2, #ededed);verticalAlign=middle;horizontal=1;" vertex="1" parent="1">
          <mxGeometry x="270" y="290" width="120" height="40" as="geometry" />
        </mxCell>
        <mxCell id="vZvixKyqz1IigzheAkqA-8" value="" style="edgeStyle=orthogonalEdgeStyle;rounded=1;orthogonalLoop=1;jettySize=auto;html=1;fontSize=14;fontStyle=0;fontFamily=Times New Roman;labelBorderColor=none;textShadow=0;strokeWidth=3;strokeColor=light-dark(#f9f115, #ededed);endArrow=block;endFill=1;shadow=1;" edge="1" parent="1" source="vZvixKyqz1IigzheAkqA-5" target="vZvixKyqz1IigzheAkqA-7">
          <mxGeometry relative="1" as="geometry" />
        </mxCell>
        <mxCell id="vZvixKyqz1IigzheAkqA-5" value="理性认识" style="whiteSpace=wrap;html=1;rounded=1;fontSize=18;fontStyle=0;fontFamily=Times New Roman;labelBorderColor=none;textShadow=0;shadow=0;strokeWidth=3;strokeColor=light-dark(#0276f2, #ededed);verticalAlign=middle;horizontal=1;" vertex="1" parent="1">
          <mxGeometry x="270" y="360" width="120" height="40" as="geometry" />
        </mxCell>
        <mxCell id="vZvixKyqz1IigzheAkqA-14" value="" style="edgeStyle=orthogonalEdgeStyle;rounded=1;orthogonalLoop=1;jettySize=auto;html=1;fontSize=14;fontStyle=0;fontFamily=Times New Roman;labelBorderColor=none;textShadow=0;strokeWidth=3;strokeColor=light-dark(#f9f115, #ededed);endArrow=block;endFill=1;shadow=1;" edge="1" parent="1" source="vZvixKyqz1IigzheAkqA-7" target="vZvixKyqz1IigzheAkqA-13">
          <mxGeometry relative="1" as="geometry" />
        </mxCell>
        <mxCell id="vZvixKyqz1IigzheAkqA-7" value="制定方案" style="whiteSpace=wrap;html=1;rounded=1;fontSize=18;fontStyle=0;fontFamily=Times New Roman;labelBorderColor=none;textShadow=0;shadow=0;strokeWidth=3;strokeColor=light-dark(#0276f2, #ededed);verticalAlign=middle;horizontal=1;" vertex="1" parent="1">
          <mxGeometry x="270" y="430" width="120" height="40" as="geometry" />
        </mxCell>
        <mxCell id="vZvixKyqz1IigzheAkqA-19" value="" style="edgeStyle=orthogonalEdgeStyle;rounded=1;orthogonalLoop=1;jettySize=auto;html=1;fontSize=14;fontStyle=0;fontFamily=Times New Roman;labelBorderColor=none;textShadow=0;strokeWidth=3;strokeColor=light-dark(#f9f115, #ededed);endArrow=block;endFill=1;shadow=1;" edge="1" parent="1" source="vZvixKyqz1IigzheAkqA-13" target="vZvixKyqz1IigzheAkqA-18">
          <mxGeometry relative="1" as="geometry" />
        </mxCell>
        <mxCell id="vZvixKyqz1IigzheAkqA-28" value="失败" style="edgeLabel;html=1;align=center;verticalAlign=middle;resizable=0;points=[];rounded=1;" vertex="1" connectable="0" parent="vZvixKyqz1IigzheAkqA-19">
          <mxGeometry x="-0.4" relative="1" as="geometry">
            <mxPoint as="offset" />
          </mxGeometry>
        </mxCell>
        <mxCell id="vZvixKyqz1IigzheAkqA-22" value="" style="edgeStyle=orthogonalEdgeStyle;rounded=1;orthogonalLoop=1;jettySize=auto;html=1;fontSize=14;fontStyle=0;fontFamily=Times New Roman;labelBorderColor=none;textShadow=0;strokeWidth=3;strokeColor=light-dark(#f9f115, #ededed);endArrow=block;endFill=1;shadow=1;" edge="1" parent="1" source="vZvixKyqz1IigzheAkqA-13" target="vZvixKyqz1IigzheAkqA-21">
          <mxGeometry relative="1" as="geometry" />
        </mxCell>
        <mxCell id="vZvixKyqz1IigzheAkqA-29" value="成功" style="edgeLabel;html=1;align=center;verticalAlign=middle;resizable=0;points=[];rounded=1;" vertex="1" connectable="0" parent="vZvixKyqz1IigzheAkqA-22">
          <mxGeometry x="0.4182" y="-1" relative="1" as="geometry">
            <mxPoint x="1" y="-11" as="offset" />
          </mxGeometry>
        </mxCell>
        <mxCell id="vZvixKyqz1IigzheAkqA-13" value="实践检验" style="rhombus;whiteSpace=wrap;html=1;rounded=1;fontSize=18;fontStyle=0;fontFamily=Times New Roman;labelBorderColor=none;textShadow=0;shadow=0;strokeWidth=3;strokeColor=light-dark(#0276f2, #ededed);verticalAlign=middle;horizontal=1;" vertex="1" parent="1">
          <mxGeometry x="260" y="500" width="140" height="50" as="geometry" />
        </mxCell>
        <mxCell id="vZvixKyqz1IigzheAkqA-26" style="edgeStyle=orthogonalEdgeStyle;rounded=1;orthogonalLoop=1;jettySize=auto;html=1;entryX=0;entryY=0.5;entryDx=0;entryDy=0;fontSize=14;fontStyle=0;fontFamily=Times New Roman;labelBorderColor=none;textShadow=0;strokeWidth=3;strokeColor=light-dark(#f9f115, #ededed);endArrow=block;endFill=1;shadow=1;" edge="1" parent="1" source="vZvixKyqz1IigzheAkqA-18" target="vZvixKyqz1IigzheAkqA-7">
          <mxGeometry relative="1" as="geometry" />
        </mxCell>
        <mxCell id="vZvixKyqz1IigzheAkqA-18" value="修正理论" style="whiteSpace=wrap;html=1;rounded=1;fontSize=18;fontStyle=0;fontFamily=Times New Roman;labelBorderColor=none;textShadow=0;shadow=0;strokeWidth=3;strokeColor=light-dark(#0276f2, #ededed);verticalAlign=middle;horizontal=1;" vertex="1" parent="1">
          <mxGeometry x="110" y="430" width="120" height="40" as="geometry" />
        </mxCell>
        <mxCell id="vZvixKyqz1IigzheAkqA-24" value="" style="edgeStyle=orthogonalEdgeStyle;rounded=1;orthogonalLoop=1;jettySize=auto;html=1;fontSize=14;fontStyle=0;fontFamily=Times New Roman;labelBorderColor=none;textShadow=0;strokeWidth=3;strokeColor=light-dark(#f9f115, #ededed);endArrow=block;endFill=1;shadow=1;" edge="1" parent="1" source="vZvixKyqz1IigzheAkqA-21" target="vZvixKyqz1IigzheAkqA-23">
          <mxGeometry relative="1" as="geometry" />
        </mxCell>
        <mxCell id="vZvixKyqz1IigzheAkqA-21" value="认知完成，问题解决" style="whiteSpace=wrap;html=1;rounded=1;fontSize=18;fontStyle=0;fontFamily=Times New Roman;labelBorderColor=none;textShadow=0;shadow=0;strokeWidth=4;strokeColor=light-dark(#0276f2, #ededed);verticalAlign=middle;horizontal=1;" vertex="1" parent="1">
          <mxGeometry x="260" y="590" width="140" height="55" as="geometry" />
        </mxCell>
        <mxCell id="vZvixKyqz1IigzheAkqA-25" style="edgeStyle=orthogonalEdgeStyle;rounded=1;orthogonalLoop=1;jettySize=auto;html=1;entryX=0.5;entryY=0;entryDx=0;entryDy=0;fontSize=14;fontStyle=0;fontFamily=Times New Roman;labelBorderColor=none;textShadow=0;strokeWidth=3;strokeColor=light-dark(#f9f115, #ededed);endArrow=block;endFill=1;shadow=1;" edge="1" parent="1" source="vZvixKyqz1IigzheAkqA-23" target="vZvixKyqz1IigzheAkqA-2">
          <mxGeometry relative="1" as="geometry">
            <Array as="points">
              <mxPoint x="330" y="730" />
              <mxPoint x="460" y="730" />
              <mxPoint x="460" y="190" />
              <mxPoint x="330" y="190" />
            </Array>
          </mxGeometry>
        </mxCell>
        <mxCell id="vZvixKyqz1IigzheAkqA-23" value="新阶段新矛盾新问题" style="whiteSpace=wrap;html=1;rounded=1;fontSize=18;fontStyle=0;fontFamily=Times New Roman;labelBorderColor=none;textShadow=0;shadow=0;strokeWidth=3;strokeColor=light-dark(#0276f2, #ededed);verticalAlign=middle;horizontal=1;" vertex="1" parent="1">
          <mxGeometry x="260" y="670" width="140" height="50" as="geometry" />
        </mxCell>
      </root>
    </mxGraphModel>
  </diagram>
</mxfile>
